<svg width="10" height="10" viewBox="0 0 10 10" fill="none" xmlns="http://www.w3.org/2000/svg">
<path fill-rule="evenodd" clip-rule="evenodd" d="M2.90376 8.97118C2.87466 8.94215 2.85157 8.90767 2.83581 8.8697C2.82006 8.83173 2.81195 8.79103 2.81195 8.74993C2.81195 8.70883 2.82006 8.66812 2.83581 8.63016C2.85157 8.59219 2.87466 8.55771 2.90376 8.52868L6.43313 4.99993L2.90376 1.47118C2.8747 1.44212 2.85166 1.40763 2.83593 1.36967C2.82021 1.33171 2.81211 1.29102 2.81211 1.24993C2.81211 1.20884 2.82021 1.16815 2.83593 1.13019C2.85166 1.09223 2.8747 1.05773 2.90376 1.02868C2.93281 0.999625 2.96731 0.976577 3.00527 0.960853C3.04323 0.945128 3.08392 0.937036 3.12501 0.937036C3.1661 0.937036 3.20679 0.945128 3.24475 0.960853C3.28271 0.976577 3.3172 0.999625 3.34626 1.02868L7.09626 4.77868C7.12536 4.80771 7.14845 4.84219 7.1642 4.88016C7.17996 4.91812 7.18807 4.95882 7.18807 4.99993C7.18807 5.04103 7.17996 5.08173 7.1642 5.1197C7.14845 5.15767 7.12536 5.19215 7.09626 5.22118L3.34626 8.97118C3.31723 9.00028 3.28275 9.02337 3.24478 9.03912C3.20681 9.05488 3.16611 9.06299 3.12501 9.06299C3.0839 9.06299 3.0432 9.05488 3.00524 9.03912C2.96727 9.02337 2.93279 9.00028 2.90376 8.97118Z" fill="#3B82F6" stroke="#3B82F6" stroke-width="0.7"/>
</svg>
