<svg width="10" height="6" viewBox="0 0 10 6" fill="none" xmlns="http://www.w3.org/2000/svg">
<path fill-rule="evenodd" clip-rule="evenodd" d="M1.02876 0.90382C1.05779 0.874718 1.09227 0.851629 1.13024 0.835875C1.1682 0.820121 1.2089 0.812012 1.25001 0.812012C1.29111 0.812012 1.33181 0.820121 1.36978 0.835875C1.40775 0.851629 1.44223 0.874718 1.47126 0.90382L5.00001 4.4332L8.52876 0.90382C8.55781 0.874765 8.59231 0.851717 8.63027 0.835993C8.66823 0.820269 8.70892 0.812175 8.75001 0.812175C8.7911 0.812175 8.83179 0.820269 8.86975 0.835993C8.90771 0.851717 8.9422 0.874765 8.97126 0.90382C9.00031 0.932875 9.02336 0.967368 9.03909 1.00533C9.05481 1.04329 9.0629 1.08398 9.0629 1.12507C9.0629 1.16616 9.05481 1.20685 9.03909 1.24481C9.02336 1.28277 9.00031 1.31727 8.97126 1.34632L5.22126 5.09632C5.19223 5.12542 5.15775 5.14851 5.11978 5.16427C5.08181 5.18002 5.04111 5.18813 5.00001 5.18813C4.9589 5.18813 4.9182 5.18002 4.88024 5.16427C4.84227 5.14851 4.80779 5.12542 4.77876 5.09632L1.02876 1.34632C0.999657 1.31729 0.976568 1.28281 0.960814 1.24484C0.94506 1.20688 0.936951 1.16617 0.936951 1.12507C0.936951 1.08397 0.94506 1.04326 0.960814 1.0053C0.976568 0.967333 0.999657 0.932849 1.02876 0.90382Z" fill="#3B82F6" stroke="#3B82F6" stroke-width="0.7"/>
</svg>
