<svg width="12" height="8" viewBox="0 0 12 8" fill="none" xmlns="http://www.w3.org/2000/svg">
<path d="M6.00006 7.24992C5.90152 7.25038 5.80388 7.23116 5.71286 7.19338C5.62185 7.1556 5.5393 7.10003 5.47006 7.02992L0.470058 2.02992C0.370333 1.88402 0.32533 1.70759 0.342988 1.53175C0.360645 1.35592 0.439828 1.19196 0.566571 1.0688C0.693314 0.945647 0.859474 0.871203 1.03575 0.8586C1.21202 0.845997 1.38708 0.896045 1.53006 0.999916L6.00006 5.43992L10.4701 0.999916C10.611 0.908526 10.7786 0.867105 10.9459 0.882292C11.1132 0.89748 11.2705 0.968396 11.3927 1.08368C11.5149 1.19896 11.5949 1.35192 11.6198 1.51806C11.6447 1.68419 11.6131 1.85388 11.5301 1.99992L6.53006 6.99992C6.46339 7.07548 6.38199 7.13663 6.29086 7.17961C6.19972 7.2226 6.10077 7.24653 6.00006 7.24992Z" fill="#1E293B"/>
</svg>
